<svg xmlns="http://www.w3.org/2000/svg" viewBox="0 0 80 80"><defs><style>.cls-1{fill:#e6e6e6;}.cls-2{fill:#ccc;}</style></defs><title>locked_day자산 1</title><g id="레이어_2" data-name="레이어 2"><g id="레이어_1-2" data-name="레이어 1"><g id="레이어_2-2" data-name="레이어 2"><g id="레이어_3" data-name="레이어 3"><circle class="cls-1" cx="40" cy="40" r="40"/><path class="cls-2" d="M54.41,37.13H51.27V28.35h0a11.27,11.27,0,0,0-22.53,0h0v8.78H25.6a1.26,1.26,0,0,0-1.25,1.25V55.91a1.26,1.26,0,0,0,1.25,1.25H54.4a1.26,1.26,0,0,0,1.25-1.25V38.38A1.26,1.26,0,0,0,54.41,37.13ZM33.12,28.35h0a6.89,6.89,0,1,1,13.77,0h0v8.78H33.12Zm9.24,22H37.65l1.51-4.41a2.5,2.5,0,1,1,1.69,0Z"/></g></g></g></g></svg>