<svg xmlns="http://www.w3.org/2000/svg" viewBox="0 0 30 30"><defs><style>.cls-1{fill:#6be1cc;}.cls-2{fill:#fff;}</style></defs><title>forum_icons자산 18</title><g id="레이어_2" data-name="레이어 2"><g id="레이어_3" data-name="레이어 3"><path class="cls-1" d="M30,15A15,15,0,0,1,15,30h0A15,15,0,0,1,0,15H0A15,15,0,0,1,15,0h0A15,15,0,0,1,30,15Z"/><path class="cls-2" d="M21.44,12.74V12a6.6,6.6,0,0,0-1.72-4.53,5.94,5.94,0,0,0-4.42-1.9h-.59a5.93,5.93,0,0,0-4.42,1.9A6.61,6.61,0,0,0,8.57,12v.72a2.6,2.6,0,0,0-2.42,2.59v1.13a2.6,2.6,0,0,0,2.59,2.59H10.2a.48.48,0,0,0,.47-.48V13.21a.48.48,0,0,0-.47-.47H9.52V12A5.22,5.22,0,0,1,14.7,6.54h.6A5.22,5.22,0,0,1,20.48,12v.72H19.8a.48.48,0,0,0-.47.47v5.37a.47.47,0,0,0,.47.47h.67a3.16,3.16,0,0,1-2.69,3.18,1.67,1.67,0,0,0-1.59-1.15H15a1.67,1.67,0,0,0,0,3.34H16.2a1.67,1.67,0,0,0,1.61-1.23,4.53,4.53,0,0,0,1.61-.55,4.18,4.18,0,0,0,2-3.59,2.6,2.6,0,0,0,2.43-2.59V15.33a2.58,2.58,0,0,0-2.41-2.58ZM9.73,18.1h-1A1.65,1.65,0,0,1,7.1,16.46V15.33a1.64,1.64,0,0,1,1.65-1.64h1Zm6.47,5.36H15A.72.72,0,1,1,15,22H16.2a.72.72,0,1,1,0,1.43Zm6.71-7a1.64,1.64,0,0,1-1.64,1.64h-1V13.69h1a1.64,1.64,0,0,1,1.64,1.64Zm0,0"/></g></g></svg>