<svg xmlns="http://www.w3.org/2000/svg" viewBox="0 0 187.94 25"><defs><style>.cls-1{fill:#6be1cc;}.cls-2{fill:#666;}</style></defs><title>edgelogo자산 7</title><g id="레이어_2" data-name="레이어 2"><g id="Menubar2"><path class="cls-1" d="M12.5,0A12.5,12.5,0,1,0,25,12.5,12.5,12.5,0,0,0,12.5,0Zm8.09,15.92a11.81,11.81,0,0,1-5.34,5.29s-.07,0-.11,0a.09.09,0,0,1,0-.11s5.18-4.14,3.63-9.87c0,0,0,0,0,0s0,0,0,0a12.75,12.75,0,0,1-6.2,6.68,12.72,12.72,0,0,1-6.2-6.68c0-.05,0,0,0,0a.05.05,0,0,0,0,0C4.68,17,9.85,21.1,9.85,21.1a.08.08,0,0,1,0,.11s-.11,0-.11,0a11.76,11.76,0,0,1-5.33-5.29A9.46,9.46,0,0,1,6.35,5.72s.18-.16.27-.07.06,0,.19.45c0,0,2.5,8.74,5.69,10.28C15.68,14.84,18.18,6.1,18.18,6.1c.13-.48.19-.45.19-.45s.27.07.27.07A9.46,9.46,0,0,1,20.59,15.92Z"/><path class="cls-1" d="M32.6,1.74h5.93l5.54,15.14h.09L49.63,1.74h6V23H51.83V5.92h-.06L45.3,23H42.64L36.27,5.92h-.06V23H32.6Z"/><path class="cls-1" d="M73,23H69.56V20.73h-.06a4.64,4.64,0,0,1-1.67,1.91,4.82,4.82,0,0,1-2.81.83,5.43,5.43,0,0,1-2.42-.5,4.83,4.83,0,0,1-1.66-1.31A5.37,5.37,0,0,1,60,19.8a7.76,7.76,0,0,1-.3-2.17v-9h3.61v8a10,10,0,0,0,.09,1.32,3.48,3.48,0,0,0,.39,1.25,2.62,2.62,0,0,0,.83.92,2.46,2.46,0,0,0,1.4.36,3.07,3.07,0,0,0,1.49-.35,3.12,3.12,0,0,0,1.05-.89A4,4,0,0,0,69.16,18a5.09,5.09,0,0,0,.21-1.43V8.6H73Z"/><path class="cls-1" d="M84.93,12.45a4.19,4.19,0,0,0-1.32-1.1,3.75,3.75,0,0,0-1.84-.47,3.47,3.47,0,0,0-1.59.36,1.24,1.24,0,0,0-.72,1.2,1.21,1.21,0,0,0,.8,1.19,14.6,14.6,0,0,0,2.34.71,13.35,13.35,0,0,1,1.64.48,6,6,0,0,1,1.5.8,3.9,3.9,0,0,1,1.1,1.23,3.56,3.56,0,0,1,.42,1.79,4.64,4.64,0,0,1-.5,2.24,4.18,4.18,0,0,1-1.32,1.49,5.61,5.61,0,0,1-1.93.83,10,10,0,0,1-2.27.25,9.09,9.09,0,0,1-3.28-.62,6.92,6.92,0,0,1-2.65-1.76l2.38-2.23a4.72,4.72,0,0,0,1.56,1.29,4.47,4.47,0,0,0,2.13.51,3.7,3.7,0,0,0,.8-.09,2.84,2.84,0,0,0,.75-.29,1.52,1.52,0,0,0,.56-.53A1.47,1.47,0,0,0,83.7,19a1.34,1.34,0,0,0-.83-1.3,13.24,13.24,0,0,0-2.48-.78,11.59,11.59,0,0,1-1.58-.47,5.23,5.23,0,0,1-1.37-.75,3.5,3.5,0,0,1-1-1.16,3.68,3.68,0,0,1-.36-1.72,4.11,4.11,0,0,1,.5-2.08,4.23,4.23,0,0,1,1.31-1.43,5.82,5.82,0,0,1,1.83-.82,8.16,8.16,0,0,1,2.11-.27,8.94,8.94,0,0,1,3.06.54,5.17,5.17,0,0,1,2.36,1.66Z"/><path class="cls-1" d="M89.63,3.7a2.08,2.08,0,0,1,.64-1.52,2.23,2.23,0,0,1,1.64-.65,2.39,2.39,0,0,1,1.67.62,2,2,0,0,1,.68,1.55,2,2,0,0,1-.68,1.55,2.4,2.4,0,0,1-1.67.62,2.22,2.22,0,0,1-1.64-.65A2.08,2.08,0,0,1,89.63,3.7Zm.51,4.91h3.61V23H90.14Z"/><path class="cls-1" d="M97,15.76a7.69,7.69,0,0,1,.62-3.11,7.14,7.14,0,0,1,1.68-2.39,7.35,7.35,0,0,1,2.49-1.54,9,9,0,0,1,6.14,0,7.46,7.46,0,0,1,2.5,1.54,7.2,7.2,0,0,1,1.67,2.39,7.58,7.58,0,0,1,.62,3.11,7.68,7.68,0,0,1-.62,3.13,7.37,7.37,0,0,1-1.67,2.42,7.63,7.63,0,0,1-2.5,1.58,8.5,8.5,0,0,1-6.14,0,7.52,7.52,0,0,1-2.49-1.58,7.31,7.31,0,0,1-1.68-2.42A7.78,7.78,0,0,1,97,15.76Zm3.67,0a5.88,5.88,0,0,0,.25,1.69,4.73,4.73,0,0,0,.77,1.51A4.06,4.06,0,0,0,103,20a4.34,4.34,0,0,0,3.73,0A4.11,4.11,0,0,0,108,19a4.66,4.66,0,0,0,.76-1.51,5.71,5.71,0,0,0,.26-1.69,5.53,5.53,0,0,0-.26-1.67A4.67,4.67,0,0,0,108,12.6a3.94,3.94,0,0,0-1.29-1.07,4.52,4.52,0,0,0-3.73,0,3.89,3.89,0,0,0-1.3,1.07,4.74,4.74,0,0,0-.77,1.49A5.69,5.69,0,0,0,100.67,15.76Z"/><path class="cls-2" d="M136.58,5.85h9.13v2H139v4.3h5.67v2.06H139v5h6.93V21.3h-9.36Z"/><path class="cls-2" d="M149.18,5.85h4c4.75,0,7.45,2.62,7.45,7.66s-2.71,7.79-7.33,7.79h-4.14ZM153,19.31c3.32,0,5.1-2,5.1-5.79s-1.78-5.69-5.1-5.69h-1.41V19.31Z"/><path class="cls-2" d="M163,13.62c0-5,3.11-8.06,7.2-8.06a6.16,6.16,0,0,1,4.6,2L173.5,9.06a4.18,4.18,0,0,0-3.19-1.39c-2.88,0-4.79,2.23-4.79,5.86s1.7,5.92,4.89,5.92a3.83,3.83,0,0,0,2.44-.76V15.07h-3.07v-2h5.27v6.7a6.94,6.94,0,0,1-4.89,1.81C166,21.57,163,18.68,163,13.62Z"/><path class="cls-2" d="M178.58,5.85h9.13v2H181v4.3h5.67v2.06H181v5h6.93V21.3h-9.36Z"/></g></g></svg>