<svg xmlns="http://www.w3.org/2000/svg" viewBox="0 0 80.01 80"><defs><style>.cls-1{fill:#e6e6e6;}.cls-2{fill:#ccc;}.cls-3{font-size:18px;fill:#6be1cc;font-family:NotoSansCJKjp-Bold-83pv-RKSJ-H, Noto Sans CJK JP;font-weight:700;}</style></defs><title>console icons자산 4</title><g id="레이어_2" data-name="레이어 2"><g id="레이어_3" data-name="레이어 3"><ellipse class="cls-1" cx="40" cy="40" rx="40" ry="40"/><path class="cls-2" d="M54.41,37.13H51.27V28.35h0a11.27,11.27,0,0,0-22.53,0h0v8.78H25.6a1.26,1.26,0,0,0-1.25,1.25V55.91a1.26,1.26,0,0,0,1.25,1.25h28.8a1.26,1.26,0,0,0,1.25-1.25V38.38A1.26,1.26,0,0,0,54.41,37.13ZM33.12,28.35s0,0,0,0a6.88,6.88,0,0,1,13.77,0s0,0,0,0v8.78H33.12Zm9.24,22H37.65l1.51-4.41a2.5,2.5,0,1,1,1.69,0Z"/><text class="cls-3" transform="translate(20.93 46.79)">PRO</text></g></g></svg>